<mxfile host="65bd71144e">
    <diagram id="PKPzsPuSvtrFh9qEeBRn" name="Page-1">
        <mxGraphModel dx="2657" dy="1499" grid="0" gridSize="10" guides="1" tooltips="1" connect="1" arrows="1" fold="1" page="0" pageScale="1" pageWidth="827" pageHeight="1169" math="0" shadow="0">
            <root>
                <mxCell id="0"/>
                <mxCell id="1" parent="0"/>
                <mxCell id="2" value="App" style="swimlane;fontStyle=0;childLayout=stackLayout;horizontal=1;startSize=30;horizontalStack=0;resizeParent=1;resizeParentMax=0;resizeLast=0;collapsible=1;marginBottom=0;whiteSpace=wrap;html=1;" parent="1" vertex="1">
                    <mxGeometry x="126" y="-14" width="190" height="110" as="geometry"/>
                </mxCell>
                <mxCell id="90" value="App(): Constructor&lt;br&gt;&lt;br&gt;return: Navigation JSX.Element" style="text;strokeColor=#BD7000;fillColor=#f0a30a;align=left;verticalAlign=middle;spacingLeft=4;spacingRight=4;overflow=hidden;points=[[0,0.5],[1,0.5]];portConstraint=eastwest;rotatable=0;whiteSpace=wrap;html=1;fontColor=#000000;" parent="2" vertex="1">
                    <mxGeometry y="30" width="190" height="50" as="geometry"/>
                </mxCell>
                <mxCell id="91" value="fontsLoaded: State Boolean" style="text;strokeColor=#001DBC;fillColor=#0050ef;align=left;verticalAlign=middle;spacingLeft=4;spacingRight=4;overflow=hidden;points=[[0,0.5],[1,0.5]];portConstraint=eastwest;rotatable=0;whiteSpace=wrap;html=1;fontColor=#ffffff;" parent="2" vertex="1">
                    <mxGeometry y="80" width="190" height="30" as="geometry"/>
                </mxCell>
                <mxCell id="6" value="Home" style="swimlane;fontStyle=0;childLayout=stackLayout;horizontal=1;startSize=30;horizontalStack=0;resizeParent=1;resizeParentMax=0;resizeLast=0;collapsible=1;marginBottom=0;whiteSpace=wrap;html=1;" parent="1" vertex="1">
                    <mxGeometry x="-72" y="237" width="280" height="80" as="geometry"/>
                </mxCell>
                <mxCell id="54" value="Sbb(): Constructor Props: navigation: Object&lt;br&gt;&lt;br&gt;return: JSX.Element" style="text;strokeColor=#BD7000;fillColor=#f0a30a;align=left;verticalAlign=middle;spacingLeft=4;spacingRight=4;overflow=hidden;points=[[0,0.5],[1,0.5]];portConstraint=eastwest;rotatable=0;whiteSpace=wrap;html=1;fontColor=#000000;" parent="6" vertex="1">
                    <mxGeometry y="30" width="280" height="50" as="geometry"/>
                </mxCell>
                <mxCell id="8" value="Sbb" style="swimlane;fontStyle=0;childLayout=stackLayout;horizontal=1;startSize=30;horizontalStack=0;resizeParent=1;resizeParentMax=0;resizeLast=0;collapsible=1;marginBottom=0;whiteSpace=wrap;html=1;" parent="1" vertex="1">
                    <mxGeometry x="350" y="244" width="409" height="400" as="geometry"/>
                </mxCell>
                <mxCell id="35" value="apiData: State Object" style="text;strokeColor=#001DBC;fillColor=#0050ef;align=left;verticalAlign=middle;spacingLeft=4;spacingRight=4;overflow=hidden;points=[[0,0.5],[1,0.5]];portConstraint=eastwest;rotatable=0;whiteSpace=wrap;html=1;fontColor=#ffffff;" parent="8" vertex="1">
                    <mxGeometry y="30" width="409" height="30" as="geometry"/>
                </mxCell>
                <mxCell id="38" value="activeTouchItem: State String" style="text;strokeColor=#001DBC;fillColor=#0050ef;align=left;verticalAlign=middle;spacingLeft=4;spacingRight=4;overflow=hidden;points=[[0,0.5],[1,0.5]];portConstraint=eastwest;rotatable=0;whiteSpace=wrap;html=1;fontColor=#ffffff;" parent="8" vertex="1">
                    <mxGeometry y="60" width="409" height="30" as="geometry"/>
                </mxCell>
                <mxCell id="39" value="journeyEndPoint: State String" style="text;strokeColor=#001DBC;fillColor=#0050ef;align=left;verticalAlign=middle;spacingLeft=4;spacingRight=4;overflow=hidden;points=[[0,0.5],[1,0.5]];portConstraint=eastwest;rotatable=0;whiteSpace=wrap;html=1;fontColor=#ffffff;" parent="8" vertex="1">
                    <mxGeometry y="90" width="409" height="30" as="geometry"/>
                </mxCell>
                <mxCell id="36" value="journeyEndPoint: State String" style="text;strokeColor=#001DBC;fillColor=#0050ef;align=left;verticalAlign=middle;spacingLeft=4;spacingRight=4;overflow=hidden;points=[[0,0.5],[1,0.5]];portConstraint=eastwest;rotatable=0;whiteSpace=wrap;html=1;fontColor=#ffffff;" parent="8" vertex="1">
                    <mxGeometry y="120" width="409" height="30" as="geometry"/>
                </mxCell>
                <mxCell id="37" value="send: State Boolean" style="text;strokeColor=#001DBC;fillColor=#0050ef;align=left;verticalAlign=middle;spacingLeft=4;spacingRight=4;overflow=hidden;points=[[0,0.5],[1,0.5]];portConstraint=eastwest;rotatable=0;whiteSpace=wrap;html=1;fontColor=#ffffff;" parent="8" vertex="1">
                    <mxGeometry y="150" width="409" height="30" as="geometry"/>
                </mxCell>
                <mxCell id="32" value="journeyStartPoint: State String" style="text;strokeColor=#001DBC;fillColor=#0050ef;align=left;verticalAlign=middle;spacingLeft=4;spacingRight=4;overflow=hidden;points=[[0,0.5],[1,0.5]];portConstraint=eastwest;rotatable=0;whiteSpace=wrap;html=1;fontColor=#ffffff;" parent="8" vertex="1">
                    <mxGeometry y="180" width="409" height="30" as="geometry"/>
                </mxCell>
                <mxCell id="40" value="location: State Object" style="text;strokeColor=#001DBC;fillColor=#0050ef;align=left;verticalAlign=middle;spacingLeft=4;spacingRight=4;overflow=hidden;points=[[0,0.5],[1,0.5]];portConstraint=eastwest;rotatable=0;whiteSpace=wrap;html=1;fontColor=#ffffff;" parent="8" vertex="1">
                    <mxGeometry y="210" width="409" height="30" as="geometry"/>
                </mxCell>
                <mxCell id="42" value="errorMsg: State String" style="text;strokeColor=#001DBC;fillColor=#0050ef;align=left;verticalAlign=middle;spacingLeft=4;spacingRight=4;overflow=hidden;points=[[0,0.5],[1,0.5]];portConstraint=eastwest;rotatable=0;whiteSpace=wrap;html=1;fontColor=#ffffff;" parent="8" vertex="1">
                    <mxGeometry y="240" width="409" height="30" as="geometry"/>
                </mxCell>
                <mxCell id="43" value="handlePress(): Funktion Props: destination: string, isCustomDestination: Boolean" style="text;strokeColor=#B20000;fillColor=#e51400;align=left;verticalAlign=middle;spacingLeft=4;spacingRight=4;overflow=hidden;points=[[0,0.5],[1,0.5]];portConstraint=eastwest;rotatable=0;whiteSpace=wrap;html=1;fontColor=#ffffff;" parent="8" vertex="1">
                    <mxGeometry y="270" width="409" height="30" as="geometry"/>
                </mxCell>
                <mxCell id="44" value="handleSubmit(): Funktion" style="text;strokeColor=#B20000;fillColor=#e51400;align=left;verticalAlign=middle;spacingLeft=4;spacingRight=4;overflow=hidden;points=[[0,0.5],[1,0.5]];portConstraint=eastwest;rotatable=0;whiteSpace=wrap;html=1;fontColor=#ffffff;" parent="8" vertex="1">
                    <mxGeometry y="300" width="409" height="30" as="geometry"/>
                </mxCell>
                <mxCell id="92" value="handleFocus(): Funktion Props: inputName: String" style="text;strokeColor=#B20000;fillColor=#e51400;align=left;verticalAlign=middle;spacingLeft=4;spacingRight=4;overflow=hidden;points=[[0,0.5],[1,0.5]];portConstraint=eastwest;rotatable=0;whiteSpace=wrap;html=1;fontColor=#ffffff;" vertex="1" parent="8">
                    <mxGeometry y="330" width="409" height="30" as="geometry"/>
                </mxCell>
                <mxCell id="93" value="handlePress(): Funktion Props: destination: String, isCustomDestination: String" style="text;strokeColor=#B20000;fillColor=#e51400;align=left;verticalAlign=middle;spacingLeft=4;spacingRight=4;overflow=hidden;points=[[0,0.5],[1,0.5]];portConstraint=eastwest;rotatable=0;whiteSpace=wrap;html=1;fontColor=#ffffff;" vertex="1" parent="8">
                    <mxGeometry y="360" width="409" height="40" as="geometry"/>
                </mxCell>
                <mxCell id="9" value="SbbDtails" style="swimlane;fontStyle=0;childLayout=stackLayout;horizontal=1;startSize=30;horizontalStack=0;resizeParent=1;resizeParentMax=0;resizeLast=0;collapsible=1;marginBottom=0;whiteSpace=wrap;html=1;" parent="1" vertex="1">
                    <mxGeometry x="309.5" y="690" width="490" height="300" as="geometry"/>
                </mxCell>
                <mxCell id="45" value="Sbbdetails(): Constructor Props:&lt;br&gt;route: Route, route.connection: String, navigation: Object&lt;br&gt;return: JSX.Elemet" style="text;strokeColor=#BD7000;fillColor=#f0a30a;align=left;verticalAlign=middle;spacingLeft=4;spacingRight=4;overflow=hidden;points=[[0,0.5],[1,0.5]];portConstraint=eastwest;rotatable=0;whiteSpace=wrap;html=1;fontColor=#000000;" parent="9" vertex="1">
                    <mxGeometry y="30" width="490" height="60" as="geometry"/>
                </mxCell>
                <mxCell id="47" value="departureTime: String" style="text;strokeColor=#001DBC;fillColor=#0050ef;align=left;verticalAlign=middle;spacingLeft=4;spacingRight=4;overflow=hidden;points=[[0,0.5],[1,0.5]];portConstraint=eastwest;rotatable=0;whiteSpace=wrap;html=1;fontColor=#ffffff;" parent="9" vertex="1">
                    <mxGeometry y="90" width="490" height="30" as="geometry"/>
                </mxCell>
                <mxCell id="48" value="arrivalTime: String" style="text;strokeColor=#001DBC;fillColor=#0050ef;align=left;verticalAlign=middle;spacingLeft=4;spacingRight=4;overflow=hidden;points=[[0,0.5],[1,0.5]];portConstraint=eastwest;rotatable=0;whiteSpace=wrap;html=1;fontColor=#ffffff;" parent="9" vertex="1">
                    <mxGeometry y="120" width="490" height="30" as="geometry"/>
                </mxCell>
                <mxCell id="49" value="departureStation: String" style="text;strokeColor=#001DBC;fillColor=#0050ef;align=left;verticalAlign=middle;spacingLeft=4;spacingRight=4;overflow=hidden;points=[[0,0.5],[1,0.5]];portConstraint=eastwest;rotatable=0;whiteSpace=wrap;html=1;fontColor=#ffffff;" parent="9" vertex="1">
                    <mxGeometry y="150" width="490" height="30" as="geometry"/>
                </mxCell>
                <mxCell id="50" value="arrivalStation: String" style="text;strokeColor=#001DBC;fillColor=#0050ef;align=left;verticalAlign=middle;spacingLeft=4;spacingRight=4;overflow=hidden;points=[[0,0.5],[1,0.5]];portConstraint=eastwest;rotatable=0;whiteSpace=wrap;html=1;fontColor=#ffffff;" parent="9" vertex="1">
                    <mxGeometry y="180" width="490" height="30" as="geometry"/>
                </mxCell>
                <mxCell id="51" value="departurePlatform: String" style="text;strokeColor=#001DBC;fillColor=#0050ef;align=left;verticalAlign=middle;spacingLeft=4;spacingRight=4;overflow=hidden;points=[[0,0.5],[1,0.5]];portConstraint=eastwest;rotatable=0;whiteSpace=wrap;html=1;fontColor=#ffffff;" parent="9" vertex="1">
                    <mxGeometry y="210" width="490" height="30" as="geometry"/>
                </mxCell>
                <mxCell id="52" value="arrivalPlatform: String" style="text;strokeColor=#001DBC;fillColor=#0050ef;align=left;verticalAlign=middle;spacingLeft=4;spacingRight=4;overflow=hidden;points=[[0,0.5],[1,0.5]];portConstraint=eastwest;rotatable=0;whiteSpace=wrap;html=1;fontColor=#ffffff;" parent="9" vertex="1">
                    <mxGeometry y="240" width="490" height="30" as="geometry"/>
                </mxCell>
                <mxCell id="53" value="train: String" style="text;strokeColor=#001DBC;fillColor=#0050ef;align=left;verticalAlign=middle;spacingLeft=4;spacingRight=4;overflow=hidden;points=[[0,0.5],[1,0.5]];portConstraint=eastwest;rotatable=0;whiteSpace=wrap;html=1;fontColor=#ffffff;" parent="9" vertex="1">
                    <mxGeometry y="270" width="490" height="30" as="geometry"/>
                </mxCell>
                <mxCell id="10" value="SbbJourney" style="swimlane;fontStyle=0;childLayout=stackLayout;horizontal=1;startSize=30;horizontalStack=0;resizeParent=1;resizeParentMax=0;resizeLast=0;collapsible=1;marginBottom=0;whiteSpace=wrap;html=1;" parent="1" vertex="1">
                    <mxGeometry x="311" y="1120" width="490.5" height="90" as="geometry"/>
                </mxCell>
                <mxCell id="59" value="SbbJourney(): Constructor Props: &lt;br&gt;route: Route, passList: Array, arrivalTime: String&lt;br&gt;return: JSX.Elemet" style="text;strokeColor=#BD7000;fillColor=#f0a30a;align=left;verticalAlign=middle;spacingLeft=4;spacingRight=4;overflow=hidden;points=[[0,0.5],[1,0.5]];portConstraint=eastwest;rotatable=0;whiteSpace=wrap;html=1;fontColor=#000000;" parent="10" vertex="1">
                    <mxGeometry y="30" width="490.5" height="60" as="geometry"/>
                </mxCell>
                <mxCell id="12" value="Box" style="swimlane;fontStyle=0;childLayout=stackLayout;horizontal=1;startSize=30;horizontalStack=0;resizeParent=1;resizeParentMax=0;resizeLast=0;collapsible=1;marginBottom=0;whiteSpace=wrap;html=1;" parent="1" vertex="1">
                    <mxGeometry x="-410" y="187" width="250" height="180" as="geometry"/>
                </mxCell>
                <mxCell id="75" value="Box(): Constructor Props:&lt;br&gt;title: String&lt;br&gt;color: String&lt;br&gt;navigation: Navigation Object&lt;br&gt;description: String&lt;br&gt;icon: String&lt;br&gt;link: String&lt;br&gt;&lt;br&gt;return: JSX.Elemet" style="text;strokeColor=#BD7000;fillColor=#f0a30a;align=left;verticalAlign=middle;spacingLeft=4;spacingRight=4;overflow=hidden;points=[[0,0.5],[1,0.5]];portConstraint=eastwest;rotatable=0;whiteSpace=wrap;html=1;fontColor=#000000;" parent="12" vertex="1">
                    <mxGeometry y="30" width="250" height="150" as="geometry"/>
                </mxCell>
                <mxCell id="13" value="Touchbar" style="swimlane;fontStyle=0;childLayout=stackLayout;horizontal=1;startSize=30;horizontalStack=0;resizeParent=1;resizeParentMax=0;resizeLast=0;collapsible=1;marginBottom=0;whiteSpace=wrap;html=1;" parent="1" vertex="1">
                    <mxGeometry x="1030" y="214" width="180" height="70" as="geometry"/>
                </mxCell>
                <mxCell id="56" value="JourneyList(): Constructor&lt;br&gt;return: JSX.Elemet" style="text;strokeColor=#BD7000;fillColor=#f0a30a;align=left;verticalAlign=middle;spacingLeft=4;spacingRight=4;overflow=hidden;points=[[0,0.5],[1,0.5]];portConstraint=eastwest;rotatable=0;whiteSpace=wrap;html=1;fontColor=#000000;" parent="13" vertex="1">
                    <mxGeometry y="30" width="180" height="40" as="geometry"/>
                </mxCell>
                <mxCell id="14" value="StatusView" style="swimlane;fontStyle=0;childLayout=stackLayout;horizontal=1;startSize=30;horizontalStack=0;resizeParent=1;resizeParentMax=0;resizeLast=0;collapsible=1;marginBottom=0;whiteSpace=wrap;html=1;" parent="1" vertex="1">
                    <mxGeometry x="1010" y="335" width="200" height="70" as="geometry"/>
                </mxCell>
                <mxCell id="57" value="StatusView(): Constructor&lt;br&gt;return: JSX.Elemet" style="text;strokeColor=#BD7000;fillColor=#f0a30a;align=left;verticalAlign=middle;spacingLeft=4;spacingRight=4;overflow=hidden;points=[[0,0.5],[1,0.5]];portConstraint=eastwest;rotatable=0;whiteSpace=wrap;html=1;fontColor=#000000;" parent="14" vertex="1">
                    <mxGeometry y="30" width="200" height="40" as="geometry"/>
                </mxCell>
                <mxCell id="15" value="Trains" style="swimlane;fontStyle=0;childLayout=stackLayout;horizontal=1;startSize=30;horizontalStack=0;resizeParent=1;resizeParentMax=0;resizeLast=0;collapsible=1;marginBottom=0;whiteSpace=wrap;html=1;" parent="1" vertex="1">
                    <mxGeometry x="960" y="474" width="210" height="70" as="geometry"/>
                </mxCell>
                <mxCell id="58" value="Trains(): Constructor&lt;br&gt;return: JSX.Elemet" style="text;strokeColor=#BD7000;fillColor=#f0a30a;align=left;verticalAlign=middle;spacingLeft=4;spacingRight=4;overflow=hidden;points=[[0,0.5],[1,0.5]];portConstraint=eastwest;rotatable=0;whiteSpace=wrap;html=1;fontColor=#000000;" parent="15" vertex="1">
                    <mxGeometry y="30" width="210" height="40" as="geometry"/>
                </mxCell>
                <mxCell id="16" value="JourneyList" style="swimlane;fontStyle=0;childLayout=stackLayout;horizontal=1;startSize=30;horizontalStack=0;resizeParent=1;resizeParentMax=0;resizeLast=0;collapsible=1;marginBottom=0;whiteSpace=wrap;html=1;" parent="1" vertex="1">
                    <mxGeometry x="810" y="120" width="180" height="70" as="geometry"/>
                </mxCell>
                <mxCell id="55" value="JourneyList(): Constructor&lt;br&gt;return: JSX.Elemet" style="text;strokeColor=#BD7000;fillColor=#f0a30a;align=left;verticalAlign=middle;spacingLeft=4;spacingRight=4;overflow=hidden;points=[[0,0.5],[1,0.5]];portConstraint=eastwest;rotatable=0;whiteSpace=wrap;html=1;fontColor=#000000;" parent="16" vertex="1">
                    <mxGeometry y="30" width="180" height="40" as="geometry"/>
                </mxCell>
                <mxCell id="17" value="" style="endArrow=classic;html=1;entryX=0.5;entryY=1;entryDx=0;entryDy=0;exitX=0.5;exitY=0;exitDx=0;exitDy=0;" parent="1" source="6" target="2" edge="1">
                    <mxGeometry width="50" height="50" relative="1" as="geometry">
                        <mxPoint x="257" y="454" as="sourcePoint"/>
                        <mxPoint x="307" y="404" as="targetPoint"/>
                        <Array as="points">
                            <mxPoint x="67" y="200"/>
                            <mxPoint x="220" y="200"/>
                        </Array>
                    </mxGeometry>
                </mxCell>
                <mxCell id="18" value="" style="endArrow=classic;html=1;entryX=0.5;entryY=1;entryDx=0;entryDy=0;exitX=0.5;exitY=0;exitDx=0;exitDy=0;" parent="1" source="8" target="2" edge="1">
                    <mxGeometry width="50" height="50" relative="1" as="geometry">
                        <mxPoint x="77" y="257" as="sourcePoint"/>
                        <mxPoint x="232" y="167" as="targetPoint"/>
                        <Array as="points">
                            <mxPoint x="555" y="200"/>
                            <mxPoint x="381" y="200"/>
                            <mxPoint x="222" y="200"/>
                        </Array>
                    </mxGeometry>
                </mxCell>
                <mxCell id="19" value="" style="endArrow=classic;html=1;entryX=0;entryY=0.5;entryDx=0;entryDy=0;exitX=1;exitY=0.5;exitDx=0;exitDy=0;" parent="1" source="12" target="6" edge="1">
                    <mxGeometry width="50" height="50" relative="1" as="geometry">
                        <mxPoint x="390" y="540" as="sourcePoint"/>
                        <mxPoint x="440" y="490" as="targetPoint"/>
                    </mxGeometry>
                </mxCell>
                <mxCell id="20" value="" style="endArrow=classic;html=1;entryX=1;entryY=0.5;entryDx=0;entryDy=0;exitX=0;exitY=0.5;exitDx=0;exitDy=0;" parent="1" source="14" target="37" edge="1">
                    <mxGeometry width="50" height="50" relative="1" as="geometry">
                        <mxPoint x="820" y="700" as="sourcePoint"/>
                        <mxPoint x="759" y="441" as="targetPoint"/>
                        <Array as="points">
                            <mxPoint x="920" y="370"/>
                            <mxPoint x="920" y="411"/>
                        </Array>
                    </mxGeometry>
                </mxCell>
                <mxCell id="23" value="" style="endArrow=classic;html=1;entryX=1;entryY=0.5;entryDx=0;entryDy=0;exitX=0.5;exitY=1;exitDx=0;exitDy=0;" parent="1" source="16" target="37" edge="1">
                    <mxGeometry width="50" height="50" relative="1" as="geometry">
                        <mxPoint x="1020" y="379" as="sourcePoint"/>
                        <mxPoint x="759" y="441" as="targetPoint"/>
                        <Array as="points">
                            <mxPoint x="900" y="289"/>
                            <mxPoint x="920" y="289"/>
                            <mxPoint x="920" y="339"/>
                            <mxPoint x="920" y="369"/>
                            <mxPoint x="920" y="411"/>
                        </Array>
                    </mxGeometry>
                </mxCell>
                <mxCell id="24" value="" style="endArrow=classic;html=1;exitX=0;exitY=0.5;exitDx=0;exitDy=0;entryX=1;entryY=0.5;entryDx=0;entryDy=0;" parent="1" source="15" target="37" edge="1">
                    <mxGeometry width="50" height="50" relative="1" as="geometry">
                        <mxPoint x="1020" y="390" as="sourcePoint"/>
                        <mxPoint x="759" y="441" as="targetPoint"/>
                        <Array as="points">
                            <mxPoint x="920" y="509"/>
                            <mxPoint x="920" y="411"/>
                        </Array>
                    </mxGeometry>
                </mxCell>
                <mxCell id="25" value="" style="endArrow=classic;html=1;exitX=0;exitY=0.5;exitDx=0;exitDy=0;entryX=1;entryY=0.5;entryDx=0;entryDy=0;" parent="1" source="13" target="37" edge="1">
                    <mxGeometry width="50" height="50" relative="1" as="geometry">
                        <mxPoint x="860" y="510" as="sourcePoint"/>
                        <mxPoint x="759" y="441" as="targetPoint"/>
                        <Array as="points">
                            <mxPoint x="940" y="249"/>
                            <mxPoint x="940" y="289"/>
                            <mxPoint x="920" y="289"/>
                            <mxPoint x="920" y="300"/>
                            <mxPoint x="920" y="411"/>
                        </Array>
                    </mxGeometry>
                </mxCell>
                <mxCell id="62" value="Journeys" style="swimlane;fontStyle=0;childLayout=stackLayout;horizontal=1;startSize=30;horizontalStack=0;resizeParent=1;resizeParentMax=0;resizeLast=0;collapsible=1;marginBottom=0;whiteSpace=wrap;html=1;" parent="1" vertex="1">
                    <mxGeometry x="990" y="735" width="250" height="210" as="geometry"/>
                </mxCell>
                <mxCell id="63" value="Journeys(): Constructor Props:&lt;br&gt;&lt;br&gt;deparureTime: String&lt;br style=&quot;&quot;&gt;arrivalTime: String&lt;br style=&quot;&quot;&gt;departureStation: String&lt;br style=&quot;&quot;&gt;arrivalStation: String&lt;br style=&quot;&quot;&gt;train: String&lt;br style=&quot;&quot;&gt;departurePlatform: String&lt;br style=&quot;&quot;&gt;arrivalPlatform: String&lt;br style=&quot;&quot;&gt;passList: Array&lt;br style=&quot;color: rgb(255, 255, 255);&quot;&gt;&lt;br&gt;return: JSX.Elemet" style="text;strokeColor=#BD7000;fillColor=#f0a30a;align=left;verticalAlign=middle;spacingLeft=4;spacingRight=4;overflow=hidden;points=[[0,0.5],[1,0.5]];portConstraint=eastwest;rotatable=0;whiteSpace=wrap;html=1;fontColor=#000000;" parent="62" vertex="1">
                    <mxGeometry y="30" width="250" height="180" as="geometry"/>
                </mxCell>
                <mxCell id="65" value="Tmes" style="swimlane;fontStyle=0;childLayout=stackLayout;horizontal=1;startSize=30;horizontalStack=0;resizeParent=1;resizeParentMax=0;resizeLast=0;collapsible=1;marginBottom=0;whiteSpace=wrap;html=1;" parent="1" vertex="1">
                    <mxGeometry x="980" y="1115" width="250" height="100" as="geometry"/>
                </mxCell>
                <mxCell id="66" value="Times(): Constructor&lt;br&gt;return: JSX.Elemet" style="text;strokeColor=#BD7000;fillColor=#f0a30a;align=left;verticalAlign=middle;spacingLeft=4;spacingRight=4;overflow=hidden;points=[[0,0.5],[1,0.5]];portConstraint=eastwest;rotatable=0;whiteSpace=wrap;html=1;fontColor=#000000;" parent="65" vertex="1">
                    <mxGeometry y="30" width="250" height="40" as="geometry"/>
                </mxCell>
                <mxCell id="67" value="time: String" style="text;strokeColor=#001DBC;fillColor=#0050ef;align=left;verticalAlign=middle;spacingLeft=4;spacingRight=4;overflow=hidden;points=[[0,0.5],[1,0.5]];portConstraint=eastwest;rotatable=0;whiteSpace=wrap;html=1;fontColor=#ffffff;" parent="65" vertex="1">
                    <mxGeometry y="70" width="250" height="30" as="geometry"/>
                </mxCell>
                <mxCell id="68" value="Stations" style="swimlane;fontStyle=0;childLayout=stackLayout;horizontal=1;startSize=30;horizontalStack=0;resizeParent=1;resizeParentMax=0;resizeLast=0;collapsible=1;marginBottom=0;whiteSpace=wrap;html=1;" parent="1" vertex="1">
                    <mxGeometry x="985" y="1280" width="250" height="100" as="geometry"/>
                </mxCell>
                <mxCell id="69" value="Stations(): Constructor&lt;br&gt;return: JSX.Elemet" style="text;strokeColor=#BD7000;fillColor=#f0a30a;align=left;verticalAlign=middle;spacingLeft=4;spacingRight=4;overflow=hidden;points=[[0,0.5],[1,0.5]];portConstraint=eastwest;rotatable=0;whiteSpace=wrap;html=1;fontColor=#000000;" parent="68" vertex="1">
                    <mxGeometry y="30" width="250" height="40" as="geometry"/>
                </mxCell>
                <mxCell id="70" value="station: String" style="text;strokeColor=#001DBC;fillColor=#0050ef;align=left;verticalAlign=middle;spacingLeft=4;spacingRight=4;overflow=hidden;points=[[0,0.5],[1,0.5]];portConstraint=eastwest;rotatable=0;whiteSpace=wrap;html=1;fontColor=#ffffff;" parent="68" vertex="1">
                    <mxGeometry y="70" width="250" height="30" as="geometry"/>
                </mxCell>
                <mxCell id="71" value="LoadingSpinner" style="swimlane;fontStyle=0;childLayout=stackLayout;horizontal=1;startSize=30;horizontalStack=0;resizeParent=1;resizeParentMax=0;resizeLast=0;collapsible=1;marginBottom=0;whiteSpace=wrap;html=1;" parent="1" vertex="1">
                    <mxGeometry x="1410" y="284" width="230" height="80" as="geometry"/>
                </mxCell>
                <mxCell id="72" value="LoadingSpinner(): Constructor Props:&lt;br&gt;loading: State Boolean&lt;br&gt;return: JSX.Elemet" style="text;strokeColor=#BD7000;fillColor=#f0a30a;align=left;verticalAlign=middle;spacingLeft=4;spacingRight=4;overflow=hidden;points=[[0,0.5],[1,0.5]];portConstraint=eastwest;rotatable=0;whiteSpace=wrap;html=1;fontColor=#000000;" parent="71" vertex="1">
                    <mxGeometry y="30" width="230" height="50" as="geometry"/>
                </mxCell>
                <mxCell id="73" value="TouchBarItem" style="swimlane;fontStyle=0;childLayout=stackLayout;horizontal=1;startSize=30;horizontalStack=0;resizeParent=1;resizeParentMax=0;resizeLast=0;collapsible=1;marginBottom=0;whiteSpace=wrap;html=1;" parent="1" vertex="1">
                    <mxGeometry x="1400" y="434" width="230" height="150" as="geometry"/>
                </mxCell>
                <mxCell id="74" value="TouchBarItem(): Constructor Props:&lt;br&gt;name: String&lt;br&gt;isCustom: Boolean&lt;br&gt;text: String&lt;br&gt;handlePress: Function()&lt;br&gt;activeTouchItem: State String&lt;br&gt;&lt;br&gt;return: JSX.Elemet" style="text;strokeColor=#BD7000;fillColor=#f0a30a;align=left;verticalAlign=middle;spacingLeft=4;spacingRight=4;overflow=hidden;points=[[0,0.5],[1,0.5]];portConstraint=eastwest;rotatable=0;whiteSpace=wrap;html=1;fontColor=#000000;" parent="73" vertex="1">
                    <mxGeometry y="30" width="230" height="120" as="geometry"/>
                </mxCell>
                <mxCell id="64" value="Helpers" style="swimlane;fontStyle=0;childLayout=stackLayout;horizontal=1;startSize=30;horizontalStack=0;resizeParent=1;resizeParentMax=0;resizeLast=0;collapsible=1;marginBottom=0;whiteSpace=wrap;html=1;" parent="1" vertex="1">
                    <mxGeometry x="1450" y="715" width="300" height="250" as="geometry"/>
                </mxCell>
                <mxCell id="77" value="getJourneyTime(): Funktion:&lt;br&gt;&lt;br&gt;Props:&lt;br&gt;time: String&lt;br&gt;&lt;br&gt;reurn finalTime: String" style="text;strokeColor=#B20000;fillColor=#e51400;align=left;verticalAlign=middle;spacingLeft=4;spacingRight=4;overflow=hidden;points=[[0,0.5],[1,0.5]];portConstraint=eastwest;rotatable=0;whiteSpace=wrap;html=1;fontColor=#ffffff;" parent="64" vertex="1">
                    <mxGeometry y="30" width="300" height="110" as="geometry"/>
                </mxCell>
                <mxCell id="76" value="getSbbTime(): Funktion:&lt;br&gt;&lt;br&gt;Props: &lt;br&gt;time: String &lt;br&gt;&lt;br&gt;reurn finalTime: String" style="text;strokeColor=#B20000;fillColor=#e51400;align=left;verticalAlign=middle;spacingLeft=4;spacingRight=4;overflow=hidden;points=[[0,0.5],[1,0.5]];portConstraint=eastwest;rotatable=0;whiteSpace=wrap;html=1;fontColor=#ffffff;" parent="64" vertex="1">
                    <mxGeometry y="140" width="300" height="110" as="geometry"/>
                </mxCell>
                <mxCell id="78" value="" style="endArrow=classic;html=1;fontColor=#000000;entryX=1;entryY=0.5;entryDx=0;entryDy=0;exitX=0;exitY=0.5;exitDx=0;exitDy=0;" parent="1" source="77" target="37" edge="1">
                    <mxGeometry width="50" height="50" relative="1" as="geometry">
                        <mxPoint x="1190" y="950" as="sourcePoint"/>
                        <mxPoint x="780" y="430" as="targetPoint"/>
                        <Array as="points">
                            <mxPoint x="1310" y="800"/>
                            <mxPoint x="1310" y="640"/>
                            <mxPoint x="920" y="640"/>
                            <mxPoint x="920" y="510"/>
                            <mxPoint x="920" y="410"/>
                        </Array>
                    </mxGeometry>
                </mxCell>
                <mxCell id="79" value="" style="endArrow=classic;html=1;fontColor=#000000;exitX=0;exitY=0.5;exitDx=0;exitDy=0;entryX=1;entryY=0.5;entryDx=0;entryDy=0;" parent="1" source="76" target="37" edge="1">
                    <mxGeometry width="50" height="50" relative="1" as="geometry">
                        <mxPoint x="1390" y="850" as="sourcePoint"/>
                        <mxPoint x="760" y="380" as="targetPoint"/>
                        <Array as="points">
                            <mxPoint x="1310" y="910"/>
                            <mxPoint x="1310" y="790"/>
                            <mxPoint x="1310" y="640"/>
                            <mxPoint x="920" y="640"/>
                            <mxPoint x="920" y="412"/>
                        </Array>
                    </mxGeometry>
                </mxCell>
                <mxCell id="80" value="" style="endArrow=classic;html=1;fontColor=#000000;entryX=1;entryY=0.5;entryDx=0;entryDy=0;exitX=0;exitY=0.5;exitDx=0;exitDy=0;" parent="1" source="76" target="49" edge="1">
                    <mxGeometry width="50" height="50" relative="1" as="geometry">
                        <mxPoint x="1110" y="990" as="sourcePoint"/>
                        <mxPoint x="1160" y="940" as="targetPoint"/>
                        <Array as="points">
                            <mxPoint x="1310" y="910"/>
                            <mxPoint x="1310" y="1040"/>
                            <mxPoint x="870" y="1040"/>
                            <mxPoint x="870" y="855"/>
                        </Array>
                    </mxGeometry>
                </mxCell>
                <mxCell id="81" value="" style="endArrow=classic;html=1;fontColor=#000000;entryX=1;entryY=0.5;entryDx=0;entryDy=0;exitX=0;exitY=0.5;exitDx=0;exitDy=0;" parent="1" source="76" target="10" edge="1">
                    <mxGeometry width="50" height="50" relative="1" as="geometry">
                        <mxPoint x="1160" y="1050" as="sourcePoint"/>
                        <mxPoint x="1210" y="1000" as="targetPoint"/>
                        <Array as="points">
                            <mxPoint x="1310" y="910"/>
                            <mxPoint x="1310" y="1040"/>
                            <mxPoint x="870" y="1040"/>
                            <mxPoint x="870" y="1165"/>
                        </Array>
                    </mxGeometry>
                </mxCell>
                <mxCell id="83" value="" style="endArrow=none;html=1;fontColor=#000000;entryX=0;entryY=0.5;entryDx=0;entryDy=0;" parent="1" target="71" edge="1">
                    <mxGeometry width="50" height="50" relative="1" as="geometry">
                        <mxPoint x="1160" y="640" as="sourcePoint"/>
                        <mxPoint x="910" y="810" as="targetPoint"/>
                        <Array as="points">
                            <mxPoint x="1310" y="640"/>
                            <mxPoint x="1310" y="324"/>
                        </Array>
                    </mxGeometry>
                </mxCell>
                <mxCell id="84" value="" style="endArrow=none;html=1;fontColor=#000000;entryX=0;entryY=0.5;entryDx=0;entryDy=0;" parent="1" target="74" edge="1">
                    <mxGeometry width="50" height="50" relative="1" as="geometry">
                        <mxPoint x="1160" y="640" as="sourcePoint"/>
                        <mxPoint x="1180" y="650" as="targetPoint"/>
                        <Array as="points">
                            <mxPoint x="1310" y="640"/>
                            <mxPoint x="1310" y="524"/>
                        </Array>
                    </mxGeometry>
                </mxCell>
                <mxCell id="85" value="" style="endArrow=none;html=1;fontColor=#000000;entryX=0;entryY=0.5;entryDx=0;entryDy=0;" parent="1" target="63" edge="1">
                    <mxGeometry width="50" height="50" relative="1" as="geometry">
                        <mxPoint x="820" y="855" as="sourcePoint"/>
                        <mxPoint x="840" y="960" as="targetPoint"/>
                    </mxGeometry>
                </mxCell>
                <mxCell id="86" value="" style="endArrow=classic;html=1;fontColor=#000000;entryX=1;entryY=0.5;entryDx=0;entryDy=0;exitX=0;exitY=0.5;exitDx=0;exitDy=0;" parent="1" source="65" target="10" edge="1">
                    <mxGeometry width="50" height="50" relative="1" as="geometry">
                        <mxPoint x="740" y="1230" as="sourcePoint"/>
                        <mxPoint x="790" y="1180" as="targetPoint"/>
                    </mxGeometry>
                </mxCell>
                <mxCell id="87" value="" style="endArrow=classic;html=1;fontColor=#000000;entryX=1;entryY=0.5;entryDx=0;entryDy=0;exitX=0;exitY=0.5;exitDx=0;exitDy=0;" parent="1" source="69" target="10" edge="1">
                    <mxGeometry width="50" height="50" relative="1" as="geometry">
                        <mxPoint x="990.5000000000005" y="1215" as="sourcePoint"/>
                        <mxPoint x="810" y="1215" as="targetPoint"/>
                        <Array as="points">
                            <mxPoint x="870" y="1330"/>
                            <mxPoint x="870" y="1165"/>
                        </Array>
                    </mxGeometry>
                </mxCell>
                <mxCell id="88" value="" style="endArrow=classic;html=1;fontColor=#000000;entryX=0.5;entryY=1;entryDx=0;entryDy=0;exitX=0.5;exitY=0;exitDx=0;exitDy=0;" parent="1" source="9" target="8" edge="1">
                    <mxGeometry width="50" height="50" relative="1" as="geometry">
                        <mxPoint x="480" y="510" as="sourcePoint"/>
                        <mxPoint x="530" y="460" as="targetPoint"/>
                    </mxGeometry>
                </mxCell>
                <mxCell id="89" value="" style="endArrow=classic;html=1;fontColor=#000000;exitX=0.5;exitY=0;exitDx=0;exitDy=0;entryX=0.503;entryY=1.002;entryDx=0;entryDy=0;entryPerimeter=0;" parent="1" source="10" target="53" edge="1">
                    <mxGeometry width="50" height="50" relative="1" as="geometry">
                        <mxPoint x="564.5" y="700" as="sourcePoint"/>
                        <mxPoint x="554" y="980" as="targetPoint"/>
                    </mxGeometry>
                </mxCell>
            </root>
        </mxGraphModel>
    </diagram>
</mxfile>